<mxfile host="app.diagrams.net" agent="Mozilla/5.0 (Windows NT 10.0; Win64; x64) AppleWebKit/537.36 (KHTML, like Gecko) Chrome/132.0.0.0 Safari/537.36 OPR/117.0.0.0" version="26.2.13">
  <diagram name="Página-1" id="kcU5rSz5lpSlfPUG9S-6">
    <mxGraphModel dx="899" dy="1708" grid="1" gridSize="10" guides="1" tooltips="1" connect="1" arrows="1" fold="1" page="1" pageScale="1" pageWidth="827" pageHeight="1169" math="0" shadow="0">
      <root>
        <mxCell id="0" />
        <mxCell id="1" parent="0" />
        <mxCell id="8Mn8T-1MeE3Xo3vlcxgy-1" value="" style="rounded=0;whiteSpace=wrap;html=1;" parent="1" vertex="1">
          <mxGeometry x="360" y="200" width="80" height="120" as="geometry" />
        </mxCell>
        <mxCell id="8Mn8T-1MeE3Xo3vlcxgy-2" value="" style="rounded=0;whiteSpace=wrap;html=1;" parent="1" vertex="1">
          <mxGeometry x="640" y="320" width="320" height="80" as="geometry" />
        </mxCell>
        <mxCell id="8Mn8T-1MeE3Xo3vlcxgy-4" value="" style="rounded=0;whiteSpace=wrap;html=1;" parent="1" vertex="1">
          <mxGeometry x="480" y="80" width="160" height="80" as="geometry" />
        </mxCell>
        <mxCell id="8Mn8T-1MeE3Xo3vlcxgy-5" value="" style="shape=trapezoid;perimeter=trapezoidPerimeter;whiteSpace=wrap;html=1;fixedSize=1;direction=west;" parent="1" vertex="1">
          <mxGeometry x="480" y="-80" width="160" height="80" as="geometry" />
        </mxCell>
        <mxCell id="8Mn8T-1MeE3Xo3vlcxgy-6" value="" style="rounded=0;whiteSpace=wrap;html=1;" parent="1" vertex="1">
          <mxGeometry x="460" y="-241" width="120" height="80" as="geometry" />
        </mxCell>
        <mxCell id="8Mn8T-1MeE3Xo3vlcxgy-7" value="" style="shape=trapezoid;perimeter=trapezoidPerimeter;whiteSpace=wrap;html=1;fixedSize=1;direction=west;" parent="1" vertex="1">
          <mxGeometry x="414" y="-400" width="160" height="80" as="geometry" />
        </mxCell>
        <mxCell id="8Mn8T-1MeE3Xo3vlcxgy-8" value="" style="rounded=0;whiteSpace=wrap;html=1;" parent="1" vertex="1">
          <mxGeometry x="879" y="40" width="80" height="120" as="geometry" />
        </mxCell>
        <mxCell id="8Mn8T-1MeE3Xo3vlcxgy-10" value="" style="rounded=0;whiteSpace=wrap;html=1;" parent="1" vertex="1">
          <mxGeometry x="959" y="-122" width="160" height="81" as="geometry" />
        </mxCell>
        <mxCell id="8Mn8T-1MeE3Xo3vlcxgy-12" value="" style="rounded=0;whiteSpace=wrap;html=1;" parent="1" vertex="1">
          <mxGeometry x="839" y="-322" width="161" height="80" as="geometry" />
        </mxCell>
        <mxCell id="8Mn8T-1MeE3Xo3vlcxgy-13" value="" style="rounded=0;whiteSpace=wrap;html=1;" parent="1" vertex="1">
          <mxGeometry x="1079" y="-321" width="158" height="80" as="geometry" />
        </mxCell>
        <mxCell id="8Mn8T-1MeE3Xo3vlcxgy-15" value="" style="shape=trapezoid;perimeter=trapezoidPerimeter;whiteSpace=wrap;html=1;fixedSize=1;direction=west;" parent="1" vertex="1">
          <mxGeometry x="839" y="-482" width="161" height="80" as="geometry" />
        </mxCell>
        <mxCell id="8Mn8T-1MeE3Xo3vlcxgy-16" value="" style="rounded=0;whiteSpace=wrap;html=1;" parent="1" vertex="1">
          <mxGeometry x="1357" y="-421" width="80" height="120" as="geometry" />
        </mxCell>
        <mxCell id="8Mn8T-1MeE3Xo3vlcxgy-19" value="Memória de Código" style="text;html=1;align=center;verticalAlign=middle;whiteSpace=wrap;rounded=0;" parent="1" vertex="1">
          <mxGeometry x="370" y="170" width="60" height="30" as="geometry" />
        </mxCell>
        <mxCell id="8Mn8T-1MeE3Xo3vlcxgy-21" value="DB" style="text;html=1;align=center;verticalAlign=middle;whiteSpace=wrap;rounded=0;" parent="1" vertex="1">
          <mxGeometry x="417" y="251" width="20" height="20" as="geometry" />
        </mxCell>
        <mxCell id="8Mn8T-1MeE3Xo3vlcxgy-22" value="AB" style="text;html=1;align=center;verticalAlign=middle;whiteSpace=wrap;rounded=0;" parent="1" vertex="1">
          <mxGeometry x="416" y="212" width="20" height="20" as="geometry" />
        </mxCell>
        <mxCell id="8Mn8T-1MeE3Xo3vlcxgy-24" value="Q" style="text;html=1;align=center;verticalAlign=middle;whiteSpace=wrap;rounded=0;" parent="1" vertex="1">
          <mxGeometry x="550" y="137" width="20" height="20" as="geometry" />
        </mxCell>
        <mxCell id="8Mn8T-1MeE3Xo3vlcxgy-25" value="PC" style="text;html=1;align=center;verticalAlign=middle;whiteSpace=wrap;rounded=0;" parent="1" vertex="1">
          <mxGeometry x="615" y="110" width="20" height="20" as="geometry" />
        </mxCell>
        <mxCell id="8Mn8T-1MeE3Xo3vlcxgy-27" value="En" style="text;html=1;align=center;verticalAlign=middle;whiteSpace=wrap;rounded=0;" parent="1" vertex="1">
          <mxGeometry x="484" y="90" width="20" height="20" as="geometry" />
        </mxCell>
        <mxCell id="8Mn8T-1MeE3Xo3vlcxgy-28" value="D" style="text;html=1;align=center;verticalAlign=middle;whiteSpace=wrap;rounded=0;" parent="1" vertex="1">
          <mxGeometry x="550" y="84" width="20" height="20" as="geometry" />
        </mxCell>
        <mxCell id="8Mn8T-1MeE3Xo3vlcxgy-29" value="MCLK" style="text;html=1;align=center;verticalAlign=middle;whiteSpace=wrap;rounded=0;" parent="1" vertex="1">
          <mxGeometry x="400" y="130" width="40" height="20" as="geometry" />
        </mxCell>
        <mxCell id="8Mn8T-1MeE3Xo3vlcxgy-30" value="1" style="text;html=1;align=center;verticalAlign=middle;whiteSpace=wrap;rounded=0;" parent="1" vertex="1">
          <mxGeometry x="420" y="90" width="20" height="20" as="geometry" />
        </mxCell>
        <mxCell id="uzvwAVzjdiCxSKJMN8w5-1" value="Y3" style="text;html=1;align=center;verticalAlign=middle;whiteSpace=wrap;rounded=0;" parent="1" vertex="1">
          <mxGeometry x="549" y="-19" width="20" height="20" as="geometry" />
        </mxCell>
        <mxCell id="uzvwAVzjdiCxSKJMN8w5-2" value="S" style="text;html=1;align=center;verticalAlign=middle;whiteSpace=wrap;rounded=0;" parent="1" vertex="1">
          <mxGeometry x="490" y="-50" width="20" height="20" as="geometry" />
        </mxCell>
        <mxCell id="uzvwAVzjdiCxSKJMN8w5-3" value="0" style="text;html=1;align=center;verticalAlign=middle;whiteSpace=wrap;rounded=0;" parent="1" vertex="1">
          <mxGeometry x="510" y="-77" width="20" height="20" as="geometry" />
        </mxCell>
        <mxCell id="uzvwAVzjdiCxSKJMN8w5-4" value="6" style="text;html=1;align=center;verticalAlign=middle;whiteSpace=wrap;rounded=0;" parent="1" vertex="1">
          <mxGeometry x="556.5" y="37" width="20" height="20" as="geometry" />
        </mxCell>
        <mxCell id="uzvwAVzjdiCxSKJMN8w5-5" value="JC0" style="text;html=1;align=center;verticalAlign=middle;whiteSpace=wrap;rounded=0;" parent="1" vertex="1">
          <mxGeometry x="430" y="-50" width="20" height="20" as="geometry" />
        </mxCell>
        <mxCell id="uzvwAVzjdiCxSKJMN8w5-6" value="Y2" style="text;html=1;align=center;verticalAlign=middle;whiteSpace=wrap;rounded=0;" parent="1" vertex="1">
          <mxGeometry x="510" y="-180" width="20" height="20" as="geometry" />
        </mxCell>
        <mxCell id="uzvwAVzjdiCxSKJMN8w5-7" value="A" style="text;html=1;align=center;verticalAlign=middle;whiteSpace=wrap;rounded=0;" parent="1" vertex="1">
          <mxGeometry x="480" y="-237" width="20" height="20" as="geometry" />
        </mxCell>
        <mxCell id="uzvwAVzjdiCxSKJMN8w5-8" value="B" style="text;html=1;align=center;verticalAlign=middle;whiteSpace=wrap;rounded=0;" parent="1" vertex="1">
          <mxGeometry x="540" y="-237" width="20" height="20" as="geometry" />
        </mxCell>
        <mxCell id="uzvwAVzjdiCxSKJMN8w5-9" value="Y1" style="text;html=1;align=center;verticalAlign=middle;whiteSpace=wrap;rounded=0;" parent="1" vertex="1">
          <mxGeometry x="480" y="-339" width="20" height="20" as="geometry" />
        </mxCell>
        <mxCell id="uzvwAVzjdiCxSKJMN8w5-10" value="S" style="text;html=1;align=center;verticalAlign=middle;whiteSpace=wrap;rounded=0;" parent="1" vertex="1">
          <mxGeometry x="428" y="-370" width="20" height="20" as="geometry" />
        </mxCell>
        <mxCell id="uzvwAVzjdiCxSKJMN8w5-11" value="PC0" style="text;html=1;align=center;verticalAlign=middle;whiteSpace=wrap;rounded=0;" parent="1" vertex="1">
          <mxGeometry x="355" y="-370" width="20" height="20" as="geometry" />
        </mxCell>
        <mxCell id="uzvwAVzjdiCxSKJMN8w5-12" value="0" style="text;html=1;align=center;verticalAlign=middle;whiteSpace=wrap;rounded=0;" parent="1" vertex="1">
          <mxGeometry x="450" y="-400" width="20" height="20" as="geometry" />
        </mxCell>
        <mxCell id="uzvwAVzjdiCxSKJMN8w5-13" value="1" style="text;html=1;align=center;verticalAlign=middle;whiteSpace=wrap;rounded=0;" parent="1" vertex="1">
          <mxGeometry x="520" y="-400" width="20" height="20" as="geometry" />
        </mxCell>
        <mxCell id="uzvwAVzjdiCxSKJMN8w5-14" value="1" style="text;html=1;align=center;verticalAlign=middle;whiteSpace=wrap;rounded=0;" parent="1" vertex="1">
          <mxGeometry x="450" y="-481" width="20" height="20" as="geometry" />
        </mxCell>
        <mxCell id="uzvwAVzjdiCxSKJMN8w5-15" value="" style="endArrow=none;html=1;rounded=0;exitX=0.5;exitY=0;exitDx=0;exitDy=0;entryX=0.5;entryY=1;entryDx=0;entryDy=0;" parent="1" source="uzvwAVzjdiCxSKJMN8w5-12" target="uzvwAVzjdiCxSKJMN8w5-14" edge="1">
          <mxGeometry width="50" height="50" relative="1" as="geometry">
            <mxPoint x="490" y="-420" as="sourcePoint" />
            <mxPoint x="540" y="-470" as="targetPoint" />
          </mxGeometry>
        </mxCell>
        <mxCell id="uzvwAVzjdiCxSKJMN8w5-17" value="" style="endArrow=none;html=1;rounded=0;entryX=1;entryY=0.5;entryDx=0;entryDy=0;" parent="1" target="8Mn8T-1MeE3Xo3vlcxgy-7" edge="1">
          <mxGeometry width="50" height="50" relative="1" as="geometry">
            <mxPoint x="380" y="-360" as="sourcePoint" />
            <mxPoint x="540" y="-370" as="targetPoint" />
          </mxGeometry>
        </mxCell>
        <mxCell id="uzvwAVzjdiCxSKJMN8w5-18" value="" style="endArrow=none;html=1;rounded=0;exitX=0.25;exitY=0;exitDx=0;exitDy=0;" parent="1" source="8Mn8T-1MeE3Xo3vlcxgy-6" edge="1">
          <mxGeometry width="50" height="50" relative="1" as="geometry">
            <mxPoint x="440" y="-270" as="sourcePoint" />
            <mxPoint x="490" y="-320" as="targetPoint" />
          </mxGeometry>
        </mxCell>
        <mxCell id="uzvwAVzjdiCxSKJMN8w5-19" value="" style="endArrow=none;html=1;rounded=0;exitX=0.75;exitY=1;exitDx=0;exitDy=0;" parent="1" source="8Mn8T-1MeE3Xo3vlcxgy-5" edge="1">
          <mxGeometry width="50" height="50" relative="1" as="geometry">
            <mxPoint x="470" y="-110" as="sourcePoint" />
            <mxPoint x="520" y="-160" as="targetPoint" />
          </mxGeometry>
        </mxCell>
        <mxCell id="uzvwAVzjdiCxSKJMN8w5-20" value="" style="endArrow=none;html=1;rounded=0;" parent="1" edge="1">
          <mxGeometry width="50" height="50" relative="1" as="geometry">
            <mxPoint x="440" y="302" as="sourcePoint" />
            <mxPoint x="490" y="302" as="targetPoint" />
          </mxGeometry>
        </mxCell>
        <mxCell id="uzvwAVzjdiCxSKJMN8w5-21" value="" style="endArrow=none;html=1;rounded=0;" parent="1" edge="1">
          <mxGeometry width="50" height="50" relative="1" as="geometry">
            <mxPoint x="490" y="360" as="sourcePoint" />
            <mxPoint x="490" y="302" as="targetPoint" />
          </mxGeometry>
        </mxCell>
        <mxCell id="uzvwAVzjdiCxSKJMN8w5-22" value="" style="endArrow=none;html=1;rounded=0;" parent="1" edge="1">
          <mxGeometry width="50" height="50" relative="1" as="geometry">
            <mxPoint x="470" y="360" as="sourcePoint" />
            <mxPoint x="510" y="360" as="targetPoint" />
          </mxGeometry>
        </mxCell>
        <mxCell id="uzvwAVzjdiCxSKJMN8w5-23" value="" style="endArrow=none;html=1;rounded=0;" parent="1" edge="1">
          <mxGeometry width="50" height="50" relative="1" as="geometry">
            <mxPoint x="475" y="365" as="sourcePoint" />
            <mxPoint x="505" y="365" as="targetPoint" />
          </mxGeometry>
        </mxCell>
        <mxCell id="uzvwAVzjdiCxSKJMN8w5-24" value="" style="endArrow=none;html=1;rounded=0;" parent="1" edge="1">
          <mxGeometry width="50" height="50" relative="1" as="geometry">
            <mxPoint x="480" y="370" as="sourcePoint" />
            <mxPoint x="500" y="370" as="targetPoint" />
          </mxGeometry>
        </mxCell>
        <mxCell id="uzvwAVzjdiCxSKJMN8w5-25" value="" style="endArrow=none;html=1;rounded=0;" parent="1" edge="1">
          <mxGeometry width="50" height="50" relative="1" as="geometry">
            <mxPoint x="440" y="221" as="sourcePoint" />
            <mxPoint x="560" y="221" as="targetPoint" />
          </mxGeometry>
        </mxCell>
        <mxCell id="uzvwAVzjdiCxSKJMN8w5-26" value="" style="endArrow=none;html=1;rounded=0;entryX=0.5;entryY=1;entryDx=0;entryDy=0;" parent="1" target="8Mn8T-1MeE3Xo3vlcxgy-4" edge="1">
          <mxGeometry width="50" height="50" relative="1" as="geometry">
            <mxPoint x="560" y="221" as="sourcePoint" />
            <mxPoint x="560" y="161" as="targetPoint" />
          </mxGeometry>
        </mxCell>
        <mxCell id="uzvwAVzjdiCxSKJMN8w5-27" value="" style="endArrow=none;html=1;rounded=0;" parent="1" edge="1">
          <mxGeometry width="50" height="50" relative="1" as="geometry">
            <mxPoint x="560" y="221" as="sourcePoint" />
            <mxPoint x="720" y="221" as="targetPoint" />
          </mxGeometry>
        </mxCell>
        <mxCell id="yjy2nmk_XKgMLHxyc1XQ-1" value="" style="endArrow=none;html=1;rounded=0;" edge="1" parent="1">
          <mxGeometry width="50" height="50" relative="1" as="geometry">
            <mxPoint x="720" y="221" as="sourcePoint" />
            <mxPoint x="720" y="-440" as="targetPoint" />
          </mxGeometry>
        </mxCell>
        <mxCell id="yjy2nmk_XKgMLHxyc1XQ-2" value="" style="endArrow=none;html=1;rounded=0;" edge="1" parent="1">
          <mxGeometry width="50" height="50" relative="1" as="geometry">
            <mxPoint x="530" y="-440" as="sourcePoint" />
            <mxPoint x="720" y="-440" as="targetPoint" />
          </mxGeometry>
        </mxCell>
        <mxCell id="yjy2nmk_XKgMLHxyc1XQ-3" value="" style="endArrow=none;html=1;rounded=0;exitX=0.5;exitY=0;exitDx=0;exitDy=0;" edge="1" parent="1" source="uzvwAVzjdiCxSKJMN8w5-13">
          <mxGeometry width="50" height="50" relative="1" as="geometry">
            <mxPoint x="480" y="-390" as="sourcePoint" />
            <mxPoint x="530" y="-440" as="targetPoint" />
          </mxGeometry>
        </mxCell>
        <mxCell id="yjy2nmk_XKgMLHxyc1XQ-4" value="" style="endArrow=none;html=1;rounded=0;" edge="1" parent="1">
          <mxGeometry width="50" height="50" relative="1" as="geometry">
            <mxPoint x="549.75" y="-281" as="sourcePoint" />
            <mxPoint x="720" y="-281" as="targetPoint" />
          </mxGeometry>
        </mxCell>
        <mxCell id="yjy2nmk_XKgMLHxyc1XQ-5" value="" style="endArrow=none;html=1;rounded=0;exitX=0.25;exitY=1;exitDx=0;exitDy=0;" edge="1" parent="1">
          <mxGeometry width="50" height="50" relative="1" as="geometry">
            <mxPoint x="549.75" y="-241" as="sourcePoint" />
            <mxPoint x="549.75" y="-281" as="targetPoint" />
          </mxGeometry>
        </mxCell>
        <mxCell id="yjy2nmk_XKgMLHxyc1XQ-7" value="rel5 (D2 - D6)" style="text;html=1;align=center;verticalAlign=middle;whiteSpace=wrap;rounded=0;" vertex="1" parent="1">
          <mxGeometry x="528" y="-467" width="89" height="30" as="geometry" />
        </mxCell>
        <mxCell id="yjy2nmk_XKgMLHxyc1XQ-9" value="" style="endArrow=none;html=1;rounded=0;exitX=1.297;exitY=0.465;exitDx=0;exitDy=0;exitPerimeter=0;" edge="1" parent="1" source="uzvwAVzjdiCxSKJMN8w5-5">
          <mxGeometry width="50" height="50" relative="1" as="geometry">
            <mxPoint x="440" y="10" as="sourcePoint" />
            <mxPoint x="490" y="-40" as="targetPoint" />
          </mxGeometry>
        </mxCell>
        <mxCell id="yjy2nmk_XKgMLHxyc1XQ-10" value="" style="endArrow=none;html=1;rounded=0;exitX=1;exitY=0.5;exitDx=0;exitDy=0;" edge="1" parent="1" source="8Mn8T-1MeE3Xo3vlcxgy-30">
          <mxGeometry width="50" height="50" relative="1" as="geometry">
            <mxPoint x="430" y="150" as="sourcePoint" />
            <mxPoint x="480" y="100" as="targetPoint" />
          </mxGeometry>
        </mxCell>
        <mxCell id="yjy2nmk_XKgMLHxyc1XQ-11" value="" style="endArrow=none;html=1;rounded=0;exitX=1;exitY=0.5;exitDx=0;exitDy=0;" edge="1" parent="1" source="yjy2nmk_XKgMLHxyc1XQ-12">
          <mxGeometry width="50" height="50" relative="1" as="geometry">
            <mxPoint x="430" y="190" as="sourcePoint" />
            <mxPoint x="480" y="140" as="targetPoint" />
          </mxGeometry>
        </mxCell>
        <mxCell id="yjy2nmk_XKgMLHxyc1XQ-13" value="" style="endArrow=none;html=1;rounded=0;exitX=1;exitY=0.5;exitDx=0;exitDy=0;" edge="1" parent="1" source="8Mn8T-1MeE3Xo3vlcxgy-29" target="yjy2nmk_XKgMLHxyc1XQ-12">
          <mxGeometry width="50" height="50" relative="1" as="geometry">
            <mxPoint x="440" y="140" as="sourcePoint" />
            <mxPoint x="480" y="140" as="targetPoint" />
          </mxGeometry>
        </mxCell>
        <mxCell id="yjy2nmk_XKgMLHxyc1XQ-12" value="" style="triangle;whiteSpace=wrap;html=1;" vertex="1" parent="1">
          <mxGeometry x="480" y="130" width="14" height="20" as="geometry" />
        </mxCell>
        <mxCell id="yjy2nmk_XKgMLHxyc1XQ-14" value="" style="endArrow=none;html=1;rounded=0;exitX=0.5;exitY=0;exitDx=0;exitDy=0;" edge="1" parent="1" source="8Mn8T-1MeE3Xo3vlcxgy-4">
          <mxGeometry width="50" height="50" relative="1" as="geometry">
            <mxPoint x="510" y="50" as="sourcePoint" />
            <mxPoint x="560" as="targetPoint" />
          </mxGeometry>
        </mxCell>
        <mxCell id="yjy2nmk_XKgMLHxyc1XQ-15" value="" style="endArrow=none;html=1;rounded=0;" edge="1" parent="1">
          <mxGeometry width="50" height="50" relative="1" as="geometry">
            <mxPoint x="550" y="50" as="sourcePoint" />
            <mxPoint x="570" y="30" as="targetPoint" />
          </mxGeometry>
        </mxCell>
        <mxCell id="yjy2nmk_XKgMLHxyc1XQ-17" value="1" style="text;html=1;align=center;verticalAlign=middle;whiteSpace=wrap;rounded=0;" vertex="1" parent="1">
          <mxGeometry x="589" y="-74" width="20" height="20" as="geometry" />
        </mxCell>
        <mxCell id="yjy2nmk_XKgMLHxyc1XQ-18" value="6" style="text;html=1;align=center;verticalAlign=middle;whiteSpace=wrap;rounded=0;" vertex="1" parent="1">
          <mxGeometry x="555.5" y="180" width="20" height="20" as="geometry" />
        </mxCell>
        <mxCell id="yjy2nmk_XKgMLHxyc1XQ-19" value="" style="endArrow=none;html=1;rounded=0;" edge="1" parent="1">
          <mxGeometry width="50" height="50" relative="1" as="geometry">
            <mxPoint x="549" y="193" as="sourcePoint" />
            <mxPoint x="569" y="173" as="targetPoint" />
          </mxGeometry>
        </mxCell>
        <mxCell id="yjy2nmk_XKgMLHxyc1XQ-20" value="6" style="text;html=1;align=center;verticalAlign=middle;whiteSpace=wrap;rounded=0;" vertex="1" parent="1">
          <mxGeometry x="544.75" y="-262" width="20" height="20" as="geometry" />
        </mxCell>
        <mxCell id="yjy2nmk_XKgMLHxyc1XQ-21" value="" style="endArrow=none;html=1;rounded=0;" edge="1" parent="1">
          <mxGeometry width="50" height="50" relative="1" as="geometry">
            <mxPoint x="538.25" y="-249" as="sourcePoint" />
            <mxPoint x="558.25" y="-269" as="targetPoint" />
          </mxGeometry>
        </mxCell>
        <mxCell id="yjy2nmk_XKgMLHxyc1XQ-22" value="6" style="text;html=1;align=center;verticalAlign=middle;whiteSpace=wrap;rounded=0;" vertex="1" parent="1">
          <mxGeometry x="516.5" y="-124" width="20" height="20" as="geometry" />
        </mxCell>
        <mxCell id="yjy2nmk_XKgMLHxyc1XQ-23" value="" style="endArrow=none;html=1;rounded=0;" edge="1" parent="1">
          <mxGeometry width="50" height="50" relative="1" as="geometry">
            <mxPoint x="510" y="-111" as="sourcePoint" />
            <mxPoint x="530" y="-131" as="targetPoint" />
          </mxGeometry>
        </mxCell>
        <mxCell id="yjy2nmk_XKgMLHxyc1XQ-24" value="6" style="text;html=1;align=center;verticalAlign=middle;whiteSpace=wrap;rounded=0;" vertex="1" parent="1">
          <mxGeometry x="486.5" y="-283" width="20" height="20" as="geometry" />
        </mxCell>
        <mxCell id="yjy2nmk_XKgMLHxyc1XQ-25" value="" style="endArrow=none;html=1;rounded=0;" edge="1" parent="1">
          <mxGeometry width="50" height="50" relative="1" as="geometry">
            <mxPoint x="480" y="-270" as="sourcePoint" />
            <mxPoint x="500" y="-290" as="targetPoint" />
          </mxGeometry>
        </mxCell>
        <mxCell id="yjy2nmk_XKgMLHxyc1XQ-26" value="6" style="text;html=1;align=center;verticalAlign=middle;whiteSpace=wrap;rounded=0;" vertex="1" parent="1">
          <mxGeometry x="455.5" y="-436" width="20" height="20" as="geometry" />
        </mxCell>
        <mxCell id="yjy2nmk_XKgMLHxyc1XQ-27" value="" style="endArrow=none;html=1;rounded=0;" edge="1" parent="1">
          <mxGeometry width="50" height="50" relative="1" as="geometry">
            <mxPoint x="449" y="-423" as="sourcePoint" />
            <mxPoint x="469" y="-443" as="targetPoint" />
          </mxGeometry>
        </mxCell>
        <mxCell id="yjy2nmk_XKgMLHxyc1XQ-28" value="6" style="text;html=1;align=center;verticalAlign=middle;whiteSpace=wrap;rounded=0;" vertex="1" parent="1">
          <mxGeometry x="526.5" y="-424" width="20" height="20" as="geometry" />
        </mxCell>
        <mxCell id="yjy2nmk_XKgMLHxyc1XQ-29" value="" style="endArrow=none;html=1;rounded=0;" edge="1" parent="1">
          <mxGeometry width="50" height="50" relative="1" as="geometry">
            <mxPoint x="520" y="-411" as="sourcePoint" />
            <mxPoint x="540" y="-431" as="targetPoint" />
          </mxGeometry>
        </mxCell>
        <mxCell id="yjy2nmk_XKgMLHxyc1XQ-31" value="" style="endArrow=none;html=1;rounded=0;" edge="1" parent="1">
          <mxGeometry width="50" height="50" relative="1" as="geometry">
            <mxPoint x="440" y="260" as="sourcePoint" />
            <mxPoint x="560" y="260" as="targetPoint" />
          </mxGeometry>
        </mxCell>
        <mxCell id="yjy2nmk_XKgMLHxyc1XQ-32" value="" style="endArrow=none;html=1;rounded=0;" edge="1" parent="1">
          <mxGeometry width="50" height="50" relative="1" as="geometry">
            <mxPoint x="560" y="260" as="sourcePoint" />
            <mxPoint x="680" y="260" as="targetPoint" />
          </mxGeometry>
        </mxCell>
        <mxCell id="yjy2nmk_XKgMLHxyc1XQ-33" value="" style="endArrow=none;html=1;rounded=0;" edge="1" parent="1">
          <mxGeometry width="50" height="50" relative="1" as="geometry">
            <mxPoint x="680" y="260" as="sourcePoint" />
            <mxPoint x="680" y="-120" as="targetPoint" />
          </mxGeometry>
        </mxCell>
        <mxCell id="yjy2nmk_XKgMLHxyc1XQ-34" value="" style="endArrow=none;html=1;rounded=0;" edge="1" parent="1">
          <mxGeometry width="50" height="50" relative="1" as="geometry">
            <mxPoint x="600" y="-120" as="sourcePoint" />
            <mxPoint x="680" y="-120" as="targetPoint" />
          </mxGeometry>
        </mxCell>
        <mxCell id="yjy2nmk_XKgMLHxyc1XQ-35" value="6" style="text;html=1;align=center;verticalAlign=middle;whiteSpace=wrap;rounded=0;" vertex="1" parent="1">
          <mxGeometry x="594.75" y="-104" width="20" height="20" as="geometry" />
        </mxCell>
        <mxCell id="yjy2nmk_XKgMLHxyc1XQ-36" value="" style="endArrow=none;html=1;rounded=0;" edge="1" parent="1">
          <mxGeometry width="50" height="50" relative="1" as="geometry">
            <mxPoint x="588.25" y="-91" as="sourcePoint" />
            <mxPoint x="608.25" y="-111" as="targetPoint" />
          </mxGeometry>
        </mxCell>
        <mxCell id="yjy2nmk_XKgMLHxyc1XQ-37" value="" style="endArrow=none;html=1;rounded=0;exitX=0.25;exitY=1;exitDx=0;exitDy=0;" edge="1" parent="1">
          <mxGeometry width="50" height="50" relative="1" as="geometry">
            <mxPoint x="599.75" y="-80" as="sourcePoint" />
            <mxPoint x="599.75" y="-120" as="targetPoint" />
          </mxGeometry>
        </mxCell>
        <mxCell id="yjy2nmk_XKgMLHxyc1XQ-38" value="" style="endArrow=none;html=1;rounded=0;" edge="1" parent="1">
          <mxGeometry width="50" height="50" relative="1" as="geometry">
            <mxPoint x="678" y="260" as="sourcePoint" />
            <mxPoint x="778" y="260" as="targetPoint" />
          </mxGeometry>
        </mxCell>
        <mxCell id="yjy2nmk_XKgMLHxyc1XQ-39" value="" style="endArrow=none;html=1;rounded=0;" edge="1" parent="1">
          <mxGeometry width="50" height="50" relative="1" as="geometry">
            <mxPoint x="680" y="320" as="sourcePoint" />
            <mxPoint x="680" y="260" as="targetPoint" />
          </mxGeometry>
        </mxCell>
        <mxCell id="yjy2nmk_XKgMLHxyc1XQ-42" value="D9" style="text;html=1;align=center;verticalAlign=middle;whiteSpace=wrap;rounded=0;" vertex="1" parent="1">
          <mxGeometry x="659" y="284" width="20" height="20" as="geometry" />
        </mxCell>
        <mxCell id="yjy2nmk_XKgMLHxyc1XQ-43" value="" style="endArrow=none;html=1;rounded=0;" edge="1" parent="1">
          <mxGeometry width="50" height="50" relative="1" as="geometry">
            <mxPoint x="706" y="320" as="sourcePoint" />
            <mxPoint x="706" y="260" as="targetPoint" />
          </mxGeometry>
        </mxCell>
        <mxCell id="yjy2nmk_XKgMLHxyc1XQ-44" value="D8" style="text;html=1;align=center;verticalAlign=middle;whiteSpace=wrap;rounded=0;" vertex="1" parent="1">
          <mxGeometry x="685" y="284" width="20" height="20" as="geometry" />
        </mxCell>
        <mxCell id="yjy2nmk_XKgMLHxyc1XQ-45" value="" style="endArrow=none;html=1;rounded=0;" edge="1" parent="1">
          <mxGeometry width="50" height="50" relative="1" as="geometry">
            <mxPoint x="731" y="320" as="sourcePoint" />
            <mxPoint x="731" y="260" as="targetPoint" />
          </mxGeometry>
        </mxCell>
        <mxCell id="yjy2nmk_XKgMLHxyc1XQ-46" value="D7" style="text;html=1;align=center;verticalAlign=middle;whiteSpace=wrap;rounded=0;" vertex="1" parent="1">
          <mxGeometry x="710" y="284" width="20" height="20" as="geometry" />
        </mxCell>
        <mxCell id="yjy2nmk_XKgMLHxyc1XQ-47" value="" style="endArrow=none;html=1;rounded=0;" edge="1" parent="1">
          <mxGeometry width="50" height="50" relative="1" as="geometry">
            <mxPoint x="756" y="320" as="sourcePoint" />
            <mxPoint x="756" y="260" as="targetPoint" />
          </mxGeometry>
        </mxCell>
        <mxCell id="yjy2nmk_XKgMLHxyc1XQ-48" value="D1" style="text;html=1;align=center;verticalAlign=middle;whiteSpace=wrap;rounded=0;" vertex="1" parent="1">
          <mxGeometry x="735" y="284" width="20" height="20" as="geometry" />
        </mxCell>
        <mxCell id="yjy2nmk_XKgMLHxyc1XQ-49" value="" style="endArrow=none;html=1;rounded=0;" edge="1" parent="1">
          <mxGeometry width="50" height="50" relative="1" as="geometry">
            <mxPoint x="778" y="320" as="sourcePoint" />
            <mxPoint x="778" y="260" as="targetPoint" />
          </mxGeometry>
        </mxCell>
        <mxCell id="yjy2nmk_XKgMLHxyc1XQ-50" value="D0" style="text;html=1;align=center;verticalAlign=middle;whiteSpace=wrap;rounded=0;" vertex="1" parent="1">
          <mxGeometry x="757" y="284" width="20" height="20" as="geometry" />
        </mxCell>
        <mxCell id="yjy2nmk_XKgMLHxyc1XQ-51" value="" style="endArrow=none;html=1;rounded=0;" edge="1" parent="1">
          <mxGeometry width="50" height="50" relative="1" as="geometry">
            <mxPoint x="680" y="440" as="sourcePoint" />
            <mxPoint x="680" y="400" as="targetPoint" />
          </mxGeometry>
        </mxCell>
        <mxCell id="yjy2nmk_XKgMLHxyc1XQ-53" value="" style="endArrow=none;html=1;rounded=0;" edge="1" parent="1">
          <mxGeometry width="50" height="50" relative="1" as="geometry">
            <mxPoint x="712" y="440" as="sourcePoint" />
            <mxPoint x="712" y="400" as="targetPoint" />
          </mxGeometry>
        </mxCell>
        <mxCell id="yjy2nmk_XKgMLHxyc1XQ-55" value="" style="endArrow=none;html=1;rounded=0;" edge="1" parent="1">
          <mxGeometry width="50" height="50" relative="1" as="geometry">
            <mxPoint x="742" y="440" as="sourcePoint" />
            <mxPoint x="742" y="400" as="targetPoint" />
          </mxGeometry>
        </mxCell>
        <mxCell id="yjy2nmk_XKgMLHxyc1XQ-56" value="EnC" style="text;html=1;align=center;verticalAlign=middle;whiteSpace=wrap;rounded=0;" vertex="1" parent="1">
          <mxGeometry x="732" y="442" width="20" height="20" as="geometry" />
        </mxCell>
        <mxCell id="yjy2nmk_XKgMLHxyc1XQ-57" value="" style="endArrow=none;html=1;rounded=0;" edge="1" parent="1">
          <mxGeometry width="50" height="50" relative="1" as="geometry">
            <mxPoint x="768" y="440" as="sourcePoint" />
            <mxPoint x="768" y="400" as="targetPoint" />
          </mxGeometry>
        </mxCell>
        <mxCell id="yjy2nmk_XKgMLHxyc1XQ-58" value="EnZ" style="text;html=1;align=center;verticalAlign=middle;whiteSpace=wrap;rounded=0;" vertex="1" parent="1">
          <mxGeometry x="758" y="442" width="20" height="20" as="geometry" />
        </mxCell>
        <mxCell id="yjy2nmk_XKgMLHxyc1XQ-59" value="" style="endArrow=none;html=1;rounded=0;" edge="1" parent="1">
          <mxGeometry width="50" height="50" relative="1" as="geometry">
            <mxPoint x="795" y="440" as="sourcePoint" />
            <mxPoint x="795" y="400" as="targetPoint" />
          </mxGeometry>
        </mxCell>
        <mxCell id="yjy2nmk_XKgMLHxyc1XQ-60" value="EnV" style="text;html=1;align=center;verticalAlign=middle;whiteSpace=wrap;rounded=0;" vertex="1" parent="1">
          <mxGeometry x="785" y="442" width="20" height="20" as="geometry" />
        </mxCell>
        <mxCell id="yjy2nmk_XKgMLHxyc1XQ-61" value="" style="endArrow=none;html=1;rounded=0;" edge="1" parent="1">
          <mxGeometry width="50" height="50" relative="1" as="geometry">
            <mxPoint x="820" y="440" as="sourcePoint" />
            <mxPoint x="820" y="400" as="targetPoint" />
          </mxGeometry>
        </mxCell>
        <mxCell id="yjy2nmk_XKgMLHxyc1XQ-62" value="EnA" style="text;html=1;align=center;verticalAlign=middle;whiteSpace=wrap;rounded=0;" vertex="1" parent="1">
          <mxGeometry x="810" y="442" width="20" height="20" as="geometry" />
        </mxCell>
        <mxCell id="yjy2nmk_XKgMLHxyc1XQ-63" value="" style="endArrow=none;html=1;rounded=0;" edge="1" parent="1">
          <mxGeometry width="50" height="50" relative="1" as="geometry">
            <mxPoint x="847" y="440" as="sourcePoint" />
            <mxPoint x="847" y="400" as="targetPoint" />
          </mxGeometry>
        </mxCell>
        <mxCell id="yjy2nmk_XKgMLHxyc1XQ-64" value="A1" style="text;html=1;align=center;verticalAlign=middle;whiteSpace=wrap;rounded=0;" vertex="1" parent="1">
          <mxGeometry x="837" y="442" width="20" height="20" as="geometry" />
        </mxCell>
        <mxCell id="yjy2nmk_XKgMLHxyc1XQ-65" value="" style="endArrow=none;html=1;rounded=0;" edge="1" parent="1">
          <mxGeometry width="50" height="50" relative="1" as="geometry">
            <mxPoint x="869" y="440" as="sourcePoint" />
            <mxPoint x="869" y="400" as="targetPoint" />
          </mxGeometry>
        </mxCell>
        <mxCell id="yjy2nmk_XKgMLHxyc1XQ-66" value="A0" style="text;html=1;align=center;verticalAlign=middle;whiteSpace=wrap;rounded=0;" vertex="1" parent="1">
          <mxGeometry x="859" y="442" width="20" height="20" as="geometry" />
        </mxCell>
        <mxCell id="yjy2nmk_XKgMLHxyc1XQ-67" value="" style="endArrow=none;html=1;rounded=0;exitX=0.987;exitY=0.107;exitDx=0;exitDy=0;exitPerimeter=0;" edge="1" parent="1">
          <mxGeometry width="50" height="50" relative="1" as="geometry">
            <mxPoint x="689.74" y="444.1399999999999" as="sourcePoint" />
            <mxPoint x="670" y="444" as="targetPoint" />
          </mxGeometry>
        </mxCell>
        <mxCell id="yjy2nmk_XKgMLHxyc1XQ-70" value="WR" style="text;html=1;align=center;verticalAlign=middle;whiteSpace=wrap;rounded=0;" vertex="1" parent="1">
          <mxGeometry x="670" y="442" width="20" height="20" as="geometry" />
        </mxCell>
        <mxCell id="yjy2nmk_XKgMLHxyc1XQ-73" value="" style="endArrow=none;html=1;rounded=0;exitX=0.987;exitY=0.107;exitDx=0;exitDy=0;exitPerimeter=0;" edge="1" parent="1">
          <mxGeometry width="50" height="50" relative="1" as="geometry">
            <mxPoint x="721.74" y="444.1399999999999" as="sourcePoint" />
            <mxPoint x="702" y="444" as="targetPoint" />
          </mxGeometry>
        </mxCell>
        <mxCell id="yjy2nmk_XKgMLHxyc1XQ-74" value="RD" style="text;html=1;align=center;verticalAlign=middle;whiteSpace=wrap;rounded=0;" vertex="1" parent="1">
          <mxGeometry x="702" y="442" width="20" height="20" as="geometry" />
        </mxCell>
        <mxCell id="yjy2nmk_XKgMLHxyc1XQ-76" value="" style="endArrow=none;html=1;rounded=0;exitX=0.987;exitY=0.107;exitDx=0;exitDy=0;exitPerimeter=0;" edge="1" parent="1">
          <mxGeometry width="50" height="50" relative="1" as="geometry">
            <mxPoint x="436.74" y="295.1399999999999" as="sourcePoint" />
            <mxPoint x="417" y="295" as="targetPoint" />
          </mxGeometry>
        </mxCell>
        <mxCell id="yjy2nmk_XKgMLHxyc1XQ-77" value="OE" style="text;html=1;align=center;verticalAlign=middle;whiteSpace=wrap;rounded=0;" vertex="1" parent="1">
          <mxGeometry x="417" y="293" width="20" height="20" as="geometry" />
        </mxCell>
        <mxCell id="yjy2nmk_XKgMLHxyc1XQ-80" value="Memória de Controlo" style="text;html=1;align=center;verticalAlign=middle;whiteSpace=wrap;rounded=0;" vertex="1" parent="1">
          <mxGeometry x="730" y="345" width="120" height="30" as="geometry" />
        </mxCell>
        <mxCell id="yjy2nmk_XKgMLHxyc1XQ-81" value="" style="endArrow=none;html=1;rounded=0;entryX=0.5;entryY=1;entryDx=0;entryDy=0;" edge="1" parent="1" target="8Mn8T-1MeE3Xo3vlcxgy-8">
          <mxGeometry width="50" height="50" relative="1" as="geometry">
            <mxPoint x="920" y="320" as="sourcePoint" />
            <mxPoint x="970" y="270" as="targetPoint" />
          </mxGeometry>
        </mxCell>
        <mxCell id="yjy2nmk_XKgMLHxyc1XQ-82" value="" style="endArrow=none;html=1;rounded=0;" edge="1" parent="1">
          <mxGeometry width="50" height="50" relative="1" as="geometry">
            <mxPoint x="940" y="200" as="sourcePoint" />
            <mxPoint x="1160" y="200" as="targetPoint" />
          </mxGeometry>
        </mxCell>
        <mxCell id="yjy2nmk_XKgMLHxyc1XQ-83" value="" style="endArrow=none;html=1;rounded=0;entryX=0.5;entryY=1;entryDx=0;entryDy=0;" edge="1" parent="1">
          <mxGeometry width="50" height="50" relative="1" as="geometry">
            <mxPoint x="1160" y="200" as="sourcePoint" />
            <mxPoint x="1160" y="160" as="targetPoint" />
          </mxGeometry>
        </mxCell>
        <mxCell id="yjy2nmk_XKgMLHxyc1XQ-84" value="" style="endArrow=none;html=1;rounded=0;exitX=0.942;exitY=-0.02;exitDx=0;exitDy=0;exitPerimeter=0;" edge="1" parent="1">
          <mxGeometry width="50" height="50" relative="1" as="geometry">
            <mxPoint x="941.44" y="320.39999999999986" as="sourcePoint" />
            <mxPoint x="941" y="200" as="targetPoint" />
          </mxGeometry>
        </mxCell>
        <mxCell id="yjy2nmk_XKgMLHxyc1XQ-86" value="Q" style="text;html=1;align=center;verticalAlign=middle;whiteSpace=wrap;rounded=0;" vertex="1" parent="1">
          <mxGeometry x="909" y="141" width="20" height="20" as="geometry" />
        </mxCell>
        <mxCell id="yjy2nmk_XKgMLHxyc1XQ-89" value="Cy" style="text;html=1;align=center;verticalAlign=middle;whiteSpace=wrap;rounded=0;" vertex="1" parent="1">
          <mxGeometry x="937" y="90" width="20" height="20" as="geometry" />
        </mxCell>
        <mxCell id="yjy2nmk_XKgMLHxyc1XQ-90" value="En" style="text;html=1;align=center;verticalAlign=middle;whiteSpace=wrap;rounded=0;" vertex="1" parent="1">
          <mxGeometry x="879" y="70" width="20" height="20" as="geometry" />
        </mxCell>
        <mxCell id="yjy2nmk_XKgMLHxyc1XQ-91" value="D" style="text;html=1;align=center;verticalAlign=middle;whiteSpace=wrap;rounded=0;" vertex="1" parent="1">
          <mxGeometry x="909" y="43" width="20" height="20" as="geometry" />
        </mxCell>
        <mxCell id="yjy2nmk_XKgMLHxyc1XQ-97" value="" style="rounded=0;whiteSpace=wrap;html=1;" vertex="1" parent="1">
          <mxGeometry x="1118" y="39" width="80" height="120" as="geometry" />
        </mxCell>
        <mxCell id="yjy2nmk_XKgMLHxyc1XQ-98" value="Q" style="text;html=1;align=center;verticalAlign=middle;whiteSpace=wrap;rounded=0;" vertex="1" parent="1">
          <mxGeometry x="1148" y="140" width="20" height="20" as="geometry" />
        </mxCell>
        <mxCell id="yjy2nmk_XKgMLHxyc1XQ-99" value="Z" style="text;html=1;align=center;verticalAlign=middle;whiteSpace=wrap;rounded=0;" vertex="1" parent="1">
          <mxGeometry x="1178" y="89" width="20" height="20" as="geometry" />
        </mxCell>
        <mxCell id="yjy2nmk_XKgMLHxyc1XQ-100" value="En" style="text;html=1;align=center;verticalAlign=middle;whiteSpace=wrap;rounded=0;" vertex="1" parent="1">
          <mxGeometry x="1118" y="69" width="20" height="20" as="geometry" />
        </mxCell>
        <mxCell id="yjy2nmk_XKgMLHxyc1XQ-101" value="D" style="text;html=1;align=center;verticalAlign=middle;whiteSpace=wrap;rounded=0;" vertex="1" parent="1">
          <mxGeometry x="1148" y="42" width="20" height="20" as="geometry" />
        </mxCell>
        <mxCell id="yjy2nmk_XKgMLHxyc1XQ-102" value="MCLK" style="text;html=1;align=center;verticalAlign=middle;whiteSpace=wrap;rounded=0;" vertex="1" parent="1">
          <mxGeometry x="800" y="121" width="40" height="20" as="geometry" />
        </mxCell>
        <mxCell id="yjy2nmk_XKgMLHxyc1XQ-103" value="" style="endArrow=none;html=1;rounded=0;exitX=1;exitY=0.5;exitDx=0;exitDy=0;" edge="1" parent="1" source="yjy2nmk_XKgMLHxyc1XQ-105">
          <mxGeometry width="50" height="50" relative="1" as="geometry">
            <mxPoint x="830" y="181" as="sourcePoint" />
            <mxPoint x="880" y="131" as="targetPoint" />
          </mxGeometry>
        </mxCell>
        <mxCell id="yjy2nmk_XKgMLHxyc1XQ-104" value="" style="endArrow=none;html=1;rounded=0;exitX=1;exitY=0.5;exitDx=0;exitDy=0;" edge="1" parent="1" source="yjy2nmk_XKgMLHxyc1XQ-102" target="yjy2nmk_XKgMLHxyc1XQ-105">
          <mxGeometry width="50" height="50" relative="1" as="geometry">
            <mxPoint x="840" y="131" as="sourcePoint" />
            <mxPoint x="880" y="131" as="targetPoint" />
          </mxGeometry>
        </mxCell>
        <mxCell id="yjy2nmk_XKgMLHxyc1XQ-105" value="" style="triangle;whiteSpace=wrap;html=1;" vertex="1" parent="1">
          <mxGeometry x="879" y="121" width="14" height="20" as="geometry" />
        </mxCell>
        <mxCell id="yjy2nmk_XKgMLHxyc1XQ-106" value="" style="ellipse;whiteSpace=wrap;html=1;aspect=fixed;" vertex="1" parent="1">
          <mxGeometry x="874" y="128" width="5" height="5" as="geometry" />
        </mxCell>
        <mxCell id="yjy2nmk_XKgMLHxyc1XQ-107" value="MCLK" style="text;html=1;align=center;verticalAlign=middle;whiteSpace=wrap;rounded=0;" vertex="1" parent="1">
          <mxGeometry x="1039" y="120" width="40" height="20" as="geometry" />
        </mxCell>
        <mxCell id="yjy2nmk_XKgMLHxyc1XQ-108" value="" style="endArrow=none;html=1;rounded=0;exitX=1;exitY=0.5;exitDx=0;exitDy=0;" edge="1" parent="1" source="yjy2nmk_XKgMLHxyc1XQ-110">
          <mxGeometry width="50" height="50" relative="1" as="geometry">
            <mxPoint x="1069" y="180" as="sourcePoint" />
            <mxPoint x="1119" y="130" as="targetPoint" />
          </mxGeometry>
        </mxCell>
        <mxCell id="yjy2nmk_XKgMLHxyc1XQ-109" value="" style="endArrow=none;html=1;rounded=0;exitX=1;exitY=0.5;exitDx=0;exitDy=0;" edge="1" parent="1" source="yjy2nmk_XKgMLHxyc1XQ-107" target="yjy2nmk_XKgMLHxyc1XQ-110">
          <mxGeometry width="50" height="50" relative="1" as="geometry">
            <mxPoint x="1079" y="130" as="sourcePoint" />
            <mxPoint x="1119" y="130" as="targetPoint" />
          </mxGeometry>
        </mxCell>
        <mxCell id="yjy2nmk_XKgMLHxyc1XQ-110" value="" style="triangle;whiteSpace=wrap;html=1;" vertex="1" parent="1">
          <mxGeometry x="1118" y="120" width="14" height="20" as="geometry" />
        </mxCell>
        <mxCell id="yjy2nmk_XKgMLHxyc1XQ-111" value="" style="ellipse;whiteSpace=wrap;html=1;aspect=fixed;" vertex="1" parent="1">
          <mxGeometry x="1113" y="127" width="5" height="5" as="geometry" />
        </mxCell>
        <mxCell id="yjy2nmk_XKgMLHxyc1XQ-112" value="" style="endArrow=none;html=1;rounded=0;" edge="1" parent="1">
          <mxGeometry width="50" height="50" relative="1" as="geometry">
            <mxPoint x="1160" y="39" as="sourcePoint" />
            <mxPoint x="1160" y="-1" as="targetPoint" />
          </mxGeometry>
        </mxCell>
        <mxCell id="yjy2nmk_XKgMLHxyc1XQ-113" value="" style="endArrow=none;html=1;rounded=0;" edge="1" parent="1">
          <mxGeometry width="50" height="50" relative="1" as="geometry">
            <mxPoint x="1080" y="-1" as="sourcePoint" />
            <mxPoint x="1160" y="-1" as="targetPoint" />
          </mxGeometry>
        </mxCell>
        <mxCell id="yjy2nmk_XKgMLHxyc1XQ-115" value="" style="endArrow=none;html=1;rounded=0;entryX=0.5;entryY=1;entryDx=0;entryDy=0;" edge="1" parent="1">
          <mxGeometry width="50" height="50" relative="1" as="geometry">
            <mxPoint x="1080" y="-1" as="sourcePoint" />
            <mxPoint x="1080" y="-41" as="targetPoint" />
          </mxGeometry>
        </mxCell>
        <mxCell id="yjy2nmk_XKgMLHxyc1XQ-116" value="" style="endArrow=none;html=1;rounded=0;" edge="1" parent="1">
          <mxGeometry width="50" height="50" relative="1" as="geometry">
            <mxPoint x="919.29" as="sourcePoint" />
            <mxPoint x="919.29" y="40" as="targetPoint" />
          </mxGeometry>
        </mxCell>
        <mxCell id="yjy2nmk_XKgMLHxyc1XQ-117" value="" style="endArrow=none;html=1;rounded=0;" edge="1" parent="1">
          <mxGeometry width="50" height="50" relative="1" as="geometry">
            <mxPoint x="999.29" as="sourcePoint" />
            <mxPoint x="919.29" as="targetPoint" />
          </mxGeometry>
        </mxCell>
        <mxCell id="yjy2nmk_XKgMLHxyc1XQ-118" value="" style="endArrow=none;html=1;rounded=0;entryX=0.5;entryY=1;entryDx=0;entryDy=0;" edge="1" parent="1" source="yjy2nmk_XKgMLHxyc1XQ-130">
          <mxGeometry width="50" height="50" relative="1" as="geometry">
            <mxPoint x="999.29" y="-40" as="sourcePoint" />
            <mxPoint x="999.29" as="targetPoint" />
          </mxGeometry>
        </mxCell>
        <mxCell id="yjy2nmk_XKgMLHxyc1XQ-119" value="" style="endArrow=none;html=1;rounded=0;entryX=0;entryY=0.5;entryDx=0;entryDy=0;" edge="1" parent="1" target="yjy2nmk_XKgMLHxyc1XQ-100">
          <mxGeometry width="50" height="50" relative="1" as="geometry">
            <mxPoint x="1079" y="79" as="sourcePoint" />
            <mxPoint x="1079" y="79.64" as="targetPoint" />
          </mxGeometry>
        </mxCell>
        <mxCell id="yjy2nmk_XKgMLHxyc1XQ-124" value="EnZ" style="text;html=1;align=center;verticalAlign=middle;whiteSpace=wrap;rounded=0;" vertex="1" parent="1">
          <mxGeometry x="1055" y="69" width="20" height="20" as="geometry" />
        </mxCell>
        <mxCell id="yjy2nmk_XKgMLHxyc1XQ-125" value="" style="endArrow=none;html=1;rounded=0;entryX=0;entryY=0.5;entryDx=0;entryDy=0;" edge="1" parent="1">
          <mxGeometry width="50" height="50" relative="1" as="geometry">
            <mxPoint x="840" y="80" as="sourcePoint" />
            <mxPoint x="879" y="80" as="targetPoint" />
          </mxGeometry>
        </mxCell>
        <mxCell id="yjy2nmk_XKgMLHxyc1XQ-126" value="EnC" style="text;html=1;align=center;verticalAlign=middle;whiteSpace=wrap;rounded=0;" vertex="1" parent="1">
          <mxGeometry x="816" y="70" width="20" height="20" as="geometry" />
        </mxCell>
        <mxCell id="yjy2nmk_XKgMLHxyc1XQ-128" value="ALU" style="text;html=1;align=center;verticalAlign=middle;whiteSpace=wrap;rounded=0;" vertex="1" parent="1">
          <mxGeometry x="1028" y="-92" width="20" height="20" as="geometry" />
        </mxCell>
        <mxCell id="yjy2nmk_XKgMLHxyc1XQ-129" value="Z" style="text;html=1;align=center;verticalAlign=middle;whiteSpace=wrap;rounded=0;" vertex="1" parent="1">
          <mxGeometry x="1071" y="-61" width="20" height="20" as="geometry" />
        </mxCell>
        <mxCell id="yjy2nmk_XKgMLHxyc1XQ-131" value="" style="endArrow=none;html=1;rounded=0;entryX=0.5;entryY=1;entryDx=0;entryDy=0;" edge="1" parent="1" target="yjy2nmk_XKgMLHxyc1XQ-130">
          <mxGeometry width="50" height="50" relative="1" as="geometry">
            <mxPoint x="999.29" y="-38" as="sourcePoint" />
            <mxPoint x="999.29" y="2" as="targetPoint" />
          </mxGeometry>
        </mxCell>
        <mxCell id="yjy2nmk_XKgMLHxyc1XQ-130" value="Cy" style="text;html=1;align=center;verticalAlign=middle;whiteSpace=wrap;rounded=0;" vertex="1" parent="1">
          <mxGeometry x="990" y="-61" width="20" height="20" as="geometry" />
        </mxCell>
        <mxCell id="yjy2nmk_XKgMLHxyc1XQ-133" value="S" style="text;html=1;align=center;verticalAlign=middle;whiteSpace=wrap;rounded=0;" vertex="1" parent="1">
          <mxGeometry x="957" y="-70.5" width="20" height="20" as="geometry" />
        </mxCell>
        <mxCell id="yjy2nmk_XKgMLHxyc1XQ-134" value="Sel" style="text;html=1;align=center;verticalAlign=middle;whiteSpace=wrap;rounded=0;" vertex="1" parent="1">
          <mxGeometry x="961" y="-112" width="20" height="20" as="geometry" />
        </mxCell>
        <mxCell id="yjy2nmk_XKgMLHxyc1XQ-135" value="B" style="text;html=1;align=center;verticalAlign=middle;whiteSpace=wrap;rounded=0;" vertex="1" parent="1">
          <mxGeometry x="1069" y="-124" width="20" height="20" as="geometry" />
        </mxCell>
        <mxCell id="yjy2nmk_XKgMLHxyc1XQ-136" value="A" style="text;html=1;align=center;verticalAlign=middle;whiteSpace=wrap;rounded=0;" vertex="1" parent="1">
          <mxGeometry x="988" y="-124" width="20" height="20" as="geometry" />
        </mxCell>
        <mxCell id="yjy2nmk_XKgMLHxyc1XQ-137" value="Ci" style="text;html=1;align=center;verticalAlign=middle;whiteSpace=wrap;rounded=0;" vertex="1" parent="1">
          <mxGeometry x="1101" y="-90.5" width="20" height="20" as="geometry" />
        </mxCell>
        <mxCell id="yjy2nmk_XKgMLHxyc1XQ-139" value="" style="endArrow=none;html=1;rounded=0;" edge="1" parent="1">
          <mxGeometry width="50" height="50" relative="1" as="geometry">
            <mxPoint x="1119" y="-80" as="sourcePoint" />
            <mxPoint x="1159" y="-80" as="targetPoint" />
          </mxGeometry>
        </mxCell>
        <mxCell id="yjy2nmk_XKgMLHxyc1XQ-141" value="o" style="text;html=1;align=center;verticalAlign=middle;whiteSpace=wrap;rounded=0;" vertex="1" parent="1">
          <mxGeometry x="1155" y="-91.5" width="20" height="20" as="geometry" />
        </mxCell>
        <mxCell id="yjy2nmk_XKgMLHxyc1XQ-142" value="" style="endArrow=none;html=1;rounded=0;" edge="1" parent="1">
          <mxGeometry width="50" height="50" relative="1" as="geometry">
            <mxPoint x="760" y="-101" as="sourcePoint" />
            <mxPoint x="959" y="-101" as="targetPoint" />
          </mxGeometry>
        </mxCell>
        <mxCell id="yjy2nmk_XKgMLHxyc1XQ-143" value="" style="endArrow=none;html=1;rounded=0;" edge="1" parent="1">
          <mxGeometry width="50" height="50" relative="1" as="geometry">
            <mxPoint x="778" y="-61" as="sourcePoint" />
            <mxPoint x="959" y="-61" as="targetPoint" />
          </mxGeometry>
        </mxCell>
        <mxCell id="yjy2nmk_XKgMLHxyc1XQ-144" value="2" style="text;html=1;align=center;verticalAlign=middle;whiteSpace=wrap;rounded=0;" vertex="1" parent="1">
          <mxGeometry x="877" y="-105.5" width="20" height="20" as="geometry" />
        </mxCell>
        <mxCell id="yjy2nmk_XKgMLHxyc1XQ-145" value="" style="endArrow=none;html=1;rounded=0;" edge="1" parent="1">
          <mxGeometry width="50" height="50" relative="1" as="geometry">
            <mxPoint x="870.5" y="-92.5" as="sourcePoint" />
            <mxPoint x="890.5" y="-112.5" as="targetPoint" />
          </mxGeometry>
        </mxCell>
        <mxCell id="yjy2nmk_XKgMLHxyc1XQ-146" value="7" style="text;html=1;align=center;verticalAlign=middle;whiteSpace=wrap;rounded=0;" vertex="1" parent="1">
          <mxGeometry x="876" y="-64.5" width="20" height="20" as="geometry" />
        </mxCell>
        <mxCell id="yjy2nmk_XKgMLHxyc1XQ-147" value="" style="endArrow=none;html=1;rounded=0;" edge="1" parent="1">
          <mxGeometry width="50" height="50" relative="1" as="geometry">
            <mxPoint x="869.5" y="-51.5" as="sourcePoint" />
            <mxPoint x="889.5" y="-71.5" as="targetPoint" />
          </mxGeometry>
        </mxCell>
        <mxCell id="yjy2nmk_XKgMLHxyc1XQ-148" value="" style="endArrow=none;html=1;rounded=0;" edge="1" parent="1">
          <mxGeometry width="50" height="50" relative="1" as="geometry">
            <mxPoint x="760" y="-101" as="sourcePoint" />
            <mxPoint x="760" y="260" as="targetPoint" />
          </mxGeometry>
        </mxCell>
        <mxCell id="yjy2nmk_XKgMLHxyc1XQ-149" value="Q" style="text;html=1;align=center;verticalAlign=middle;whiteSpace=wrap;rounded=0;" vertex="1" parent="1">
          <mxGeometry x="909" y="-261" width="20" height="20" as="geometry" />
        </mxCell>
        <mxCell id="yjy2nmk_XKgMLHxyc1XQ-150" value="Q" style="text;html=1;align=center;verticalAlign=middle;whiteSpace=wrap;rounded=0;" vertex="1" parent="1">
          <mxGeometry x="1149" y="-260" width="20" height="20" as="geometry" />
        </mxCell>
        <mxCell id="yjy2nmk_XKgMLHxyc1XQ-152" value="D" style="text;html=1;align=center;verticalAlign=middle;whiteSpace=wrap;rounded=0;" vertex="1" parent="1">
          <mxGeometry x="909" y="-321" width="20" height="20" as="geometry" />
        </mxCell>
        <mxCell id="yjy2nmk_XKgMLHxyc1XQ-155" value="D" style="text;html=1;align=center;verticalAlign=middle;whiteSpace=wrap;rounded=0;" vertex="1" parent="1">
          <mxGeometry x="1149.5" y="-319" width="20" height="20" as="geometry" />
        </mxCell>
        <mxCell id="yjy2nmk_XKgMLHxyc1XQ-156" value="V" style="text;html=1;align=center;verticalAlign=middle;whiteSpace=wrap;rounded=0;" vertex="1" parent="1">
          <mxGeometry x="978" y="-291" width="20" height="20" as="geometry" />
        </mxCell>
        <mxCell id="yjy2nmk_XKgMLHxyc1XQ-157" value="A" style="text;html=1;align=center;verticalAlign=middle;whiteSpace=wrap;rounded=0;" vertex="1" parent="1">
          <mxGeometry x="1216" y="-291" width="20" height="20" as="geometry" />
        </mxCell>
        <mxCell id="yjy2nmk_XKgMLHxyc1XQ-158" value="" style="endArrow=none;html=1;rounded=0;exitX=0.25;exitY=0;exitDx=0;exitDy=0;entryX=0.5;entryY=1;entryDx=0;entryDy=0;" edge="1" parent="1" source="8Mn8T-1MeE3Xo3vlcxgy-10" target="yjy2nmk_XKgMLHxyc1XQ-149">
          <mxGeometry width="50" height="50" relative="1" as="geometry">
            <mxPoint x="870" y="-190" as="sourcePoint" />
            <mxPoint x="920" y="-240" as="targetPoint" />
            <Array as="points">
              <mxPoint x="999" y="-200" />
              <mxPoint x="920" y="-200" />
            </Array>
          </mxGeometry>
        </mxCell>
        <mxCell id="yjy2nmk_XKgMLHxyc1XQ-159" value="" style="endArrow=none;html=1;rounded=0;entryX=0.5;entryY=1;entryDx=0;entryDy=0;" edge="1" parent="1" target="yjy2nmk_XKgMLHxyc1XQ-150">
          <mxGeometry width="50" height="50" relative="1" as="geometry">
            <mxPoint x="1079" y="-122" as="sourcePoint" />
            <mxPoint x="1129" y="-172" as="targetPoint" />
            <Array as="points">
              <mxPoint x="1079" y="-200" />
              <mxPoint x="1159" y="-200" />
            </Array>
          </mxGeometry>
        </mxCell>
        <mxCell id="yjy2nmk_XKgMLHxyc1XQ-161" value="" style="endArrow=none;html=1;rounded=0;exitX=0.5;exitY=0;exitDx=0;exitDy=0;entryX=0.5;entryY=0;entryDx=0;entryDy=0;" edge="1" parent="1">
          <mxGeometry width="50" height="50" relative="1" as="geometry">
            <mxPoint x="919" y="-322" as="sourcePoint" />
            <mxPoint x="919.5" y="-403" as="targetPoint" />
          </mxGeometry>
        </mxCell>
        <mxCell id="yjy2nmk_XKgMLHxyc1XQ-162" value="7" style="text;html=1;align=center;verticalAlign=middle;whiteSpace=wrap;rounded=0;" vertex="1" parent="1">
          <mxGeometry x="915.5" y="-363" width="20" height="20" as="geometry" />
        </mxCell>
        <mxCell id="yjy2nmk_XKgMLHxyc1XQ-163" value="" style="endArrow=none;html=1;rounded=0;" edge="1" parent="1">
          <mxGeometry width="50" height="50" relative="1" as="geometry">
            <mxPoint x="909" y="-350" as="sourcePoint" />
            <mxPoint x="929" y="-370" as="targetPoint" />
          </mxGeometry>
        </mxCell>
        <mxCell id="yjy2nmk_XKgMLHxyc1XQ-166" value="Y4" style="text;html=1;align=center;verticalAlign=middle;whiteSpace=wrap;rounded=0;" vertex="1" parent="1">
          <mxGeometry x="909.5" y="-421" width="20" height="20" as="geometry" />
        </mxCell>
        <mxCell id="yjy2nmk_XKgMLHxyc1XQ-167" value="S0" style="text;html=1;align=center;verticalAlign=middle;whiteSpace=wrap;rounded=0;" vertex="1" parent="1">
          <mxGeometry x="854" y="-436" width="20" height="20" as="geometry" />
        </mxCell>
        <mxCell id="yjy2nmk_XKgMLHxyc1XQ-168" value="S1" style="text;html=1;align=center;verticalAlign=middle;whiteSpace=wrap;rounded=0;" vertex="1" parent="1">
          <mxGeometry x="846" y="-469" width="20" height="20" as="geometry" />
        </mxCell>
        <mxCell id="yjy2nmk_XKgMLHxyc1XQ-170" value="" style="endArrow=none;html=1;rounded=0;" edge="1" parent="1">
          <mxGeometry width="50" height="50" relative="1" as="geometry">
            <mxPoint x="800" y="-426" as="sourcePoint" />
            <mxPoint x="853" y="-426" as="targetPoint" />
          </mxGeometry>
        </mxCell>
        <mxCell id="yjy2nmk_XKgMLHxyc1XQ-171" value="" style="endArrow=none;html=1;rounded=0;" edge="1" parent="1">
          <mxGeometry width="50" height="50" relative="1" as="geometry">
            <mxPoint x="800" y="-460" as="sourcePoint" />
            <mxPoint x="844" y="-460" as="targetPoint" />
          </mxGeometry>
        </mxCell>
        <mxCell id="yjy2nmk_XKgMLHxyc1XQ-173" value="A0" style="text;html=1;align=center;verticalAlign=middle;whiteSpace=wrap;rounded=0;" vertex="1" parent="1">
          <mxGeometry x="781" y="-436.5" width="20" height="20" as="geometry" />
        </mxCell>
        <mxCell id="yjy2nmk_XKgMLHxyc1XQ-174" value="0" style="text;html=1;align=center;verticalAlign=middle;whiteSpace=wrap;rounded=0;" vertex="1" parent="1">
          <mxGeometry x="958" y="-480.5" width="20" height="20" as="geometry" />
        </mxCell>
        <mxCell id="yjy2nmk_XKgMLHxyc1XQ-175" value="A1" style="text;html=1;align=center;verticalAlign=middle;whiteSpace=wrap;rounded=0;" vertex="1" parent="1">
          <mxGeometry x="781" y="-469.5" width="20" height="20" as="geometry" />
        </mxCell>
        <mxCell id="yjy2nmk_XKgMLHxyc1XQ-176" value="1" style="text;html=1;align=center;verticalAlign=middle;whiteSpace=wrap;rounded=0;" vertex="1" parent="1">
          <mxGeometry x="939" y="-480.5" width="20" height="20" as="geometry" />
        </mxCell>
        <mxCell id="yjy2nmk_XKgMLHxyc1XQ-177" value="2" style="text;html=1;align=center;verticalAlign=middle;whiteSpace=wrap;rounded=0;" vertex="1" parent="1">
          <mxGeometry x="919" y="-480.5" width="20" height="20" as="geometry" />
        </mxCell>
        <mxCell id="yjy2nmk_XKgMLHxyc1XQ-179" value="3" style="text;html=1;align=center;verticalAlign=middle;whiteSpace=wrap;rounded=0;" vertex="1" parent="1">
          <mxGeometry x="899" y="-480" width="20" height="20" as="geometry" />
        </mxCell>
        <mxCell id="yjy2nmk_XKgMLHxyc1XQ-181" value="" style="endArrow=none;html=1;rounded=0;exitX=0.576;exitY=-0.125;exitDx=0;exitDy=0;exitPerimeter=0;" edge="1" parent="1">
          <mxGeometry width="50" height="50" relative="1" as="geometry">
            <mxPoint x="968.5200000000002" y="-482" as="sourcePoint" />
            <mxPoint x="969" y="-520" as="targetPoint" />
          </mxGeometry>
        </mxCell>
        <mxCell id="yjy2nmk_XKgMLHxyc1XQ-182" value="" style="endArrow=none;html=1;rounded=0;entryX=0.5;entryY=0;entryDx=0;entryDy=0;" edge="1" parent="1" target="yjy2nmk_XKgMLHxyc1XQ-220">
          <mxGeometry width="50" height="50" relative="1" as="geometry">
            <mxPoint x="949" y="-482" as="sourcePoint" />
            <mxPoint x="949" y="-540" as="targetPoint" />
            <Array as="points">
              <mxPoint x="949" y="-560" />
              <mxPoint x="1159" y="-560" />
            </Array>
          </mxGeometry>
        </mxCell>
        <mxCell id="yjy2nmk_XKgMLHxyc1XQ-183" value="" style="endArrow=none;html=1;rounded=0;entryX=-0.017;entryY=0.424;entryDx=0;entryDy=0;entryPerimeter=0;" edge="1" parent="1" target="8Mn8T-1MeE3Xo3vlcxgy-16">
          <mxGeometry width="50" height="50" relative="1" as="geometry">
            <mxPoint x="929" y="-482" as="sourcePoint" />
            <mxPoint x="1300" y="-350" as="targetPoint" />
            <Array as="points">
              <mxPoint x="929" y="-580" />
              <mxPoint x="1300" y="-580" />
              <mxPoint x="1300" y="-370" />
            </Array>
          </mxGeometry>
        </mxCell>
        <mxCell id="yjy2nmk_XKgMLHxyc1XQ-184" value="" style="endArrow=none;html=1;rounded=0;entryX=0.5;entryY=0;entryDx=0;entryDy=0;" edge="1" parent="1">
          <mxGeometry width="50" height="50" relative="1" as="geometry">
            <mxPoint x="910" y="-482" as="sourcePoint" />
            <mxPoint x="1158" y="-321" as="targetPoint" />
            <Array as="points">
              <mxPoint x="910" y="-600" />
              <mxPoint x="1260" y="-600" />
              <mxPoint x="1260" y="-340" />
              <mxPoint x="1158" y="-340" />
            </Array>
          </mxGeometry>
        </mxCell>
        <mxCell id="yjy2nmk_XKgMLHxyc1XQ-185" value="" style="endArrow=none;html=1;rounded=0;" edge="1" parent="1">
          <mxGeometry width="50" height="50" relative="1" as="geometry">
            <mxPoint x="778" y="-520" as="sourcePoint" />
            <mxPoint x="969" y="-520" as="targetPoint" />
          </mxGeometry>
        </mxCell>
        <mxCell id="yjy2nmk_XKgMLHxyc1XQ-186" value="" style="endArrow=none;html=1;rounded=0;" edge="1" parent="1">
          <mxGeometry width="50" height="50" relative="1" as="geometry">
            <mxPoint x="778" y="-520" as="sourcePoint" />
            <mxPoint x="778" y="-61.02567232572115" as="targetPoint" />
          </mxGeometry>
        </mxCell>
        <mxCell id="yjy2nmk_XKgMLHxyc1XQ-187" value="En" style="text;html=1;align=center;verticalAlign=middle;whiteSpace=wrap;rounded=0;" vertex="1" parent="1">
          <mxGeometry x="1079" y="-316.5" width="20" height="20" as="geometry" />
        </mxCell>
        <mxCell id="yjy2nmk_XKgMLHxyc1XQ-188" value="MCLK" style="text;html=1;align=center;verticalAlign=middle;whiteSpace=wrap;rounded=0;" vertex="1" parent="1">
          <mxGeometry x="1004" y="-265.5" width="50" height="20" as="geometry" />
        </mxCell>
        <mxCell id="yjy2nmk_XKgMLHxyc1XQ-189" value="" style="endArrow=none;html=1;rounded=0;exitX=1;exitY=0.5;exitDx=0;exitDy=0;" edge="1" parent="1" source="yjy2nmk_XKgMLHxyc1XQ-191">
          <mxGeometry width="50" height="50" relative="1" as="geometry">
            <mxPoint x="1030" y="-205.5" as="sourcePoint" />
            <mxPoint x="1080" y="-255.5" as="targetPoint" />
          </mxGeometry>
        </mxCell>
        <mxCell id="yjy2nmk_XKgMLHxyc1XQ-190" value="" style="endArrow=none;html=1;rounded=0;exitX=0.906;exitY=0.519;exitDx=0;exitDy=0;exitPerimeter=0;" edge="1" parent="1" source="yjy2nmk_XKgMLHxyc1XQ-188" target="yjy2nmk_XKgMLHxyc1XQ-191">
          <mxGeometry width="50" height="50" relative="1" as="geometry">
            <mxPoint x="1060" y="-230" as="sourcePoint" />
            <mxPoint x="1080" y="-255.5" as="targetPoint" />
          </mxGeometry>
        </mxCell>
        <mxCell id="yjy2nmk_XKgMLHxyc1XQ-191" value="" style="triangle;whiteSpace=wrap;html=1;" vertex="1" parent="1">
          <mxGeometry x="1079" y="-265.5" width="14" height="20" as="geometry" />
        </mxCell>
        <mxCell id="yjy2nmk_XKgMLHxyc1XQ-192" value="" style="ellipse;whiteSpace=wrap;html=1;aspect=fixed;" vertex="1" parent="1">
          <mxGeometry x="1074" y="-258.5" width="5" height="5" as="geometry" />
        </mxCell>
        <mxCell id="yjy2nmk_XKgMLHxyc1XQ-193" value="" style="endArrow=none;html=1;rounded=0;entryX=0;entryY=0.5;entryDx=0;entryDy=0;" edge="1" parent="1" target="yjy2nmk_XKgMLHxyc1XQ-187">
          <mxGeometry width="50" height="50" relative="1" as="geometry">
            <mxPoint x="1050" y="-306" as="sourcePoint" />
            <mxPoint x="1040" y="-305.86" as="targetPoint" />
          </mxGeometry>
        </mxCell>
        <mxCell id="yjy2nmk_XKgMLHxyc1XQ-194" value="EnZ" style="text;html=1;align=center;verticalAlign=middle;whiteSpace=wrap;rounded=0;" vertex="1" parent="1">
          <mxGeometry x="1025" y="-316.5" width="20" height="20" as="geometry" />
        </mxCell>
        <mxCell id="yjy2nmk_XKgMLHxyc1XQ-203" value="En" style="text;html=1;align=center;verticalAlign=middle;whiteSpace=wrap;rounded=0;" vertex="1" parent="1">
          <mxGeometry x="838.5" y="-317.5" width="20" height="20" as="geometry" />
        </mxCell>
        <mxCell id="yjy2nmk_XKgMLHxyc1XQ-204" value="MCLK" style="text;html=1;align=center;verticalAlign=middle;whiteSpace=wrap;rounded=0;" vertex="1" parent="1">
          <mxGeometry x="775" y="-230" width="50" height="20" as="geometry" />
        </mxCell>
        <mxCell id="yjy2nmk_XKgMLHxyc1XQ-205" value="" style="endArrow=none;html=1;rounded=0;exitX=1;exitY=0.5;exitDx=0;exitDy=0;" edge="1" parent="1" source="yjy2nmk_XKgMLHxyc1XQ-207">
          <mxGeometry width="50" height="50" relative="1" as="geometry">
            <mxPoint x="789.5" y="-206.5" as="sourcePoint" />
            <mxPoint x="839.5" y="-256.5" as="targetPoint" />
          </mxGeometry>
        </mxCell>
        <mxCell id="yjy2nmk_XKgMLHxyc1XQ-207" value="" style="triangle;whiteSpace=wrap;html=1;" vertex="1" parent="1">
          <mxGeometry x="839.5" y="-266.5" width="14" height="20" as="geometry" />
        </mxCell>
        <mxCell id="yjy2nmk_XKgMLHxyc1XQ-208" value="" style="ellipse;whiteSpace=wrap;html=1;aspect=fixed;" vertex="1" parent="1">
          <mxGeometry x="833.5" y="-259.5" width="5" height="5" as="geometry" />
        </mxCell>
        <mxCell id="yjy2nmk_XKgMLHxyc1XQ-209" value="" style="endArrow=none;html=1;rounded=0;entryX=0;entryY=0.5;entryDx=0;entryDy=0;" edge="1" parent="1" target="yjy2nmk_XKgMLHxyc1XQ-203">
          <mxGeometry width="50" height="50" relative="1" as="geometry">
            <mxPoint x="809.5" y="-307" as="sourcePoint" />
            <mxPoint x="799.5" y="-306.86" as="targetPoint" />
          </mxGeometry>
        </mxCell>
        <mxCell id="yjy2nmk_XKgMLHxyc1XQ-210" value="EnZ" style="text;html=1;align=center;verticalAlign=middle;whiteSpace=wrap;rounded=0;" vertex="1" parent="1">
          <mxGeometry x="784.5" y="-317.5" width="20" height="20" as="geometry" />
        </mxCell>
        <mxCell id="yjy2nmk_XKgMLHxyc1XQ-219" value="" style="endArrow=none;html=1;rounded=0;exitX=0.5;exitY=0;exitDx=0;exitDy=0;" edge="1" parent="1" source="yjy2nmk_XKgMLHxyc1XQ-204">
          <mxGeometry width="50" height="50" relative="1" as="geometry">
            <mxPoint x="783" y="-207" as="sourcePoint" />
            <mxPoint x="833" y="-257" as="targetPoint" />
            <Array as="points">
              <mxPoint x="800" y="-257" />
            </Array>
          </mxGeometry>
        </mxCell>
        <mxCell id="yjy2nmk_XKgMLHxyc1XQ-220" value="" style="rounded=0;whiteSpace=wrap;html=1;" vertex="1" parent="1">
          <mxGeometry x="1080" y="-481" width="158" height="80" as="geometry" />
        </mxCell>
        <mxCell id="yjy2nmk_XKgMLHxyc1XQ-221" value="Q" style="text;html=1;align=center;verticalAlign=middle;whiteSpace=wrap;rounded=0;" vertex="1" parent="1">
          <mxGeometry x="1150" y="-420" width="20" height="20" as="geometry" />
        </mxCell>
        <mxCell id="yjy2nmk_XKgMLHxyc1XQ-222" value="D" style="text;html=1;align=center;verticalAlign=middle;whiteSpace=wrap;rounded=0;" vertex="1" parent="1">
          <mxGeometry x="1150.5" y="-479" width="20" height="20" as="geometry" />
        </mxCell>
        <mxCell id="yjy2nmk_XKgMLHxyc1XQ-223" value="R" style="text;html=1;align=center;verticalAlign=middle;whiteSpace=wrap;rounded=0;" vertex="1" parent="1">
          <mxGeometry x="1217" y="-451" width="20" height="20" as="geometry" />
        </mxCell>
        <mxCell id="yjy2nmk_XKgMLHxyc1XQ-224" value="En" style="text;html=1;align=center;verticalAlign=middle;whiteSpace=wrap;rounded=0;" vertex="1" parent="1">
          <mxGeometry x="1080" y="-476.5" width="20" height="20" as="geometry" />
        </mxCell>
        <mxCell id="yjy2nmk_XKgMLHxyc1XQ-225" value="MCLK" style="text;html=1;align=center;verticalAlign=middle;whiteSpace=wrap;rounded=0;" vertex="1" parent="1">
          <mxGeometry x="1005" y="-425.5" width="50" height="20" as="geometry" />
        </mxCell>
        <mxCell id="yjy2nmk_XKgMLHxyc1XQ-226" value="" style="endArrow=none;html=1;rounded=0;exitX=1;exitY=0.5;exitDx=0;exitDy=0;" edge="1" parent="1" source="yjy2nmk_XKgMLHxyc1XQ-228">
          <mxGeometry width="50" height="50" relative="1" as="geometry">
            <mxPoint x="1031" y="-365.5" as="sourcePoint" />
            <mxPoint x="1081" y="-415.5" as="targetPoint" />
          </mxGeometry>
        </mxCell>
        <mxCell id="yjy2nmk_XKgMLHxyc1XQ-227" value="" style="endArrow=none;html=1;rounded=0;exitX=0.906;exitY=0.519;exitDx=0;exitDy=0;exitPerimeter=0;" edge="1" parent="1" source="yjy2nmk_XKgMLHxyc1XQ-225" target="yjy2nmk_XKgMLHxyc1XQ-228">
          <mxGeometry width="50" height="50" relative="1" as="geometry">
            <mxPoint x="1061" y="-390" as="sourcePoint" />
            <mxPoint x="1081" y="-415.5" as="targetPoint" />
          </mxGeometry>
        </mxCell>
        <mxCell id="yjy2nmk_XKgMLHxyc1XQ-228" value="" style="triangle;whiteSpace=wrap;html=1;" vertex="1" parent="1">
          <mxGeometry x="1080" y="-425.5" width="14" height="20" as="geometry" />
        </mxCell>
        <mxCell id="yjy2nmk_XKgMLHxyc1XQ-229" value="" style="ellipse;whiteSpace=wrap;html=1;aspect=fixed;" vertex="1" parent="1">
          <mxGeometry x="1075" y="-418.5" width="5" height="5" as="geometry" />
        </mxCell>
        <mxCell id="yjy2nmk_XKgMLHxyc1XQ-230" value="" style="endArrow=none;html=1;rounded=0;entryX=0;entryY=0.5;entryDx=0;entryDy=0;" edge="1" parent="1" target="yjy2nmk_XKgMLHxyc1XQ-224">
          <mxGeometry width="50" height="50" relative="1" as="geometry">
            <mxPoint x="1051" y="-466" as="sourcePoint" />
            <mxPoint x="1041" y="-465.86" as="targetPoint" />
          </mxGeometry>
        </mxCell>
        <mxCell id="yjy2nmk_XKgMLHxyc1XQ-231" value="EnZ" style="text;html=1;align=center;verticalAlign=middle;whiteSpace=wrap;rounded=0;" vertex="1" parent="1">
          <mxGeometry x="1026" y="-476.5" width="20" height="20" as="geometry" />
        </mxCell>
        <mxCell id="yjy2nmk_XKgMLHxyc1XQ-232" value="7" style="text;html=1;align=center;verticalAlign=middle;whiteSpace=wrap;rounded=0;" vertex="1" parent="1">
          <mxGeometry x="944.5" y="-543" width="20" height="20" as="geometry" />
        </mxCell>
        <mxCell id="yjy2nmk_XKgMLHxyc1XQ-233" value="" style="endArrow=none;html=1;rounded=0;" edge="1" parent="1">
          <mxGeometry width="50" height="50" relative="1" as="geometry">
            <mxPoint x="938" y="-530" as="sourcePoint" />
            <mxPoint x="958" y="-550" as="targetPoint" />
          </mxGeometry>
        </mxCell>
        <mxCell id="yjy2nmk_XKgMLHxyc1XQ-234" value="5" style="text;html=1;align=center;verticalAlign=middle;whiteSpace=wrap;rounded=0;" vertex="1" parent="1">
          <mxGeometry x="1154.5" y="-524" width="20" height="20" as="geometry" />
        </mxCell>
        <mxCell id="yjy2nmk_XKgMLHxyc1XQ-235" value="" style="endArrow=none;html=1;rounded=0;" edge="1" parent="1">
          <mxGeometry width="50" height="50" relative="1" as="geometry">
            <mxPoint x="1148" y="-511" as="sourcePoint" />
            <mxPoint x="1168" y="-531" as="targetPoint" />
          </mxGeometry>
        </mxCell>
        <mxCell id="yjy2nmk_XKgMLHxyc1XQ-237" value="const 5" style="text;html=1;align=center;verticalAlign=middle;whiteSpace=wrap;rounded=0;" vertex="1" parent="1">
          <mxGeometry x="1105.5" y="-579" width="44.5" height="20" as="geometry" />
        </mxCell>
        <mxCell id="yjy2nmk_XKgMLHxyc1XQ-240" value="const 7" style="text;html=1;align=center;verticalAlign=middle;whiteSpace=wrap;rounded=0;fontSize=10;rotation=270;" vertex="1" parent="1">
          <mxGeometry x="921" y="-510" width="44.5" height="20" as="geometry" />
        </mxCell>
        <mxCell id="yjy2nmk_XKgMLHxyc1XQ-241" value="" style="endArrow=none;html=1;rounded=0;" edge="1" parent="1">
          <mxGeometry width="50" height="50" relative="1" as="geometry">
            <mxPoint x="760" y="-101" as="sourcePoint" />
            <mxPoint x="950" y="-560" as="targetPoint" />
            <Array as="points">
              <mxPoint x="760" y="-560" />
            </Array>
          </mxGeometry>
        </mxCell>
        <mxCell id="yjy2nmk_XKgMLHxyc1XQ-242" value="Memória de Dados" style="text;html=1;align=center;verticalAlign=middle;whiteSpace=wrap;rounded=0;" vertex="1" parent="1">
          <mxGeometry x="1369" y="-445" width="60" height="20" as="geometry" />
        </mxCell>
        <mxCell id="yjy2nmk_XKgMLHxyc1XQ-243" value="A&lt;span style=&quot;background-color: transparent; color: light-dark(rgb(0, 0, 0), rgb(255, 255, 255));&quot;&gt;B&lt;/span&gt;" style="text;html=1;align=center;verticalAlign=middle;whiteSpace=wrap;rounded=0;" vertex="1" parent="1">
          <mxGeometry x="1362" y="-401" width="20" height="20" as="geometry" />
        </mxCell>
        <mxCell id="yjy2nmk_XKgMLHxyc1XQ-245" value="&lt;span style=&quot;background-color: transparent; color: light-dark(rgb(0, 0, 0), rgb(255, 255, 255));&quot;&gt;DB&lt;/span&gt;" style="text;html=1;align=center;verticalAlign=middle;whiteSpace=wrap;rounded=0;" vertex="1" parent="1">
          <mxGeometry x="1362" y="-382" width="20" height="20" as="geometry" />
        </mxCell>
        <mxCell id="yjy2nmk_XKgMLHxyc1XQ-246" value="" style="endArrow=none;html=1;rounded=0;exitX=0.987;exitY=0.107;exitDx=0;exitDy=0;exitPerimeter=0;" edge="1" parent="1">
          <mxGeometry width="50" height="50" relative="1" as="geometry">
            <mxPoint x="1381.74" y="-347.8600000000001" as="sourcePoint" />
            <mxPoint x="1362" y="-348" as="targetPoint" />
          </mxGeometry>
        </mxCell>
        <mxCell id="yjy2nmk_XKgMLHxyc1XQ-247" value="WE" style="text;html=1;align=center;verticalAlign=middle;whiteSpace=wrap;rounded=0;" vertex="1" parent="1">
          <mxGeometry x="1362" y="-350" width="20" height="20" as="geometry" />
        </mxCell>
        <mxCell id="yjy2nmk_XKgMLHxyc1XQ-248" value="" style="endArrow=none;html=1;rounded=0;exitX=0.987;exitY=0.107;exitDx=0;exitDy=0;exitPerimeter=0;" edge="1" parent="1">
          <mxGeometry width="50" height="50" relative="1" as="geometry">
            <mxPoint x="1381.74" y="-327.8600000000001" as="sourcePoint" />
            <mxPoint x="1362" y="-328" as="targetPoint" />
          </mxGeometry>
        </mxCell>
        <mxCell id="yjy2nmk_XKgMLHxyc1XQ-249" value="OE" style="text;html=1;align=center;verticalAlign=middle;whiteSpace=wrap;rounded=0;" vertex="1" parent="1">
          <mxGeometry x="1362" y="-330" width="20" height="20" as="geometry" />
        </mxCell>
        <mxCell id="yjy2nmk_XKgMLHxyc1XQ-250" value="" style="endArrow=none;html=1;rounded=0;exitX=0.5;exitY=1;exitDx=0;exitDy=0;entryX=0;entryY=0.25;entryDx=0;entryDy=0;" edge="1" parent="1" source="yjy2nmk_XKgMLHxyc1XQ-221" target="8Mn8T-1MeE3Xo3vlcxgy-16">
          <mxGeometry width="50" height="50" relative="1" as="geometry">
            <mxPoint x="1269" y="-342" as="sourcePoint" />
            <mxPoint x="1340" y="-410" as="targetPoint" />
            <Array as="points">
              <mxPoint x="1160" y="-392" />
            </Array>
          </mxGeometry>
        </mxCell>
        <mxCell id="yjy2nmk_XKgMLHxyc1XQ-252" value="" style="endArrow=none;html=1;rounded=0;" edge="1" parent="1">
          <mxGeometry width="50" height="50" relative="1" as="geometry">
            <mxPoint x="1160" y="-200" as="sourcePoint" />
            <mxPoint x="1260" y="-340" as="targetPoint" />
            <Array as="points">
              <mxPoint x="1260" y="-200" />
            </Array>
          </mxGeometry>
        </mxCell>
        <mxCell id="yjy2nmk_XKgMLHxyc1XQ-253" value="" style="endArrow=none;html=1;rounded=0;entryX=-0.012;entryY=0.839;entryDx=0;entryDy=0;entryPerimeter=0;exitX=0.514;exitY=-0.335;exitDx=0;exitDy=0;exitPerimeter=0;" edge="1" parent="1" source="yjy2nmk_XKgMLHxyc1XQ-255" target="8Mn8T-1MeE3Xo3vlcxgy-16">
          <mxGeometry width="50" height="50" relative="1" as="geometry">
            <mxPoint x="1350" y="-270" as="sourcePoint" />
            <mxPoint x="1350" y="-290" as="targetPoint" />
            <Array as="points">
              <mxPoint x="1320" y="-320" />
            </Array>
          </mxGeometry>
        </mxCell>
        <mxCell id="yjy2nmk_XKgMLHxyc1XQ-254" value="" style="endArrow=none;html=1;rounded=0;exitX=0.987;exitY=0.107;exitDx=0;exitDy=0;exitPerimeter=0;" edge="1" parent="1">
          <mxGeometry width="50" height="50" relative="1" as="geometry">
            <mxPoint x="1328.74" y="-245.36000000000013" as="sourcePoint" />
            <mxPoint x="1309" y="-245.5" as="targetPoint" />
          </mxGeometry>
        </mxCell>
        <mxCell id="yjy2nmk_XKgMLHxyc1XQ-255" value="RD" style="text;html=1;align=center;verticalAlign=middle;whiteSpace=wrap;rounded=0;" vertex="1" parent="1">
          <mxGeometry x="1309" y="-247.5" width="20" height="20" as="geometry" />
        </mxCell>
        <mxCell id="yjy2nmk_XKgMLHxyc1XQ-256" value="" style="triangle;whiteSpace=wrap;html=1;" vertex="1" parent="1">
          <mxGeometry x="1283" y="-370" width="14" height="20" as="geometry" />
        </mxCell>
        <mxCell id="yjy2nmk_XKgMLHxyc1XQ-258" value="" style="ellipse;whiteSpace=wrap;html=1;aspect=fixed;" vertex="1" parent="1">
          <mxGeometry x="1288" y="-354" width="4" height="4" as="geometry" />
        </mxCell>
        <mxCell id="yjy2nmk_XKgMLHxyc1XQ-259" value="" style="endArrow=none;html=1;rounded=0;" edge="1" parent="1">
          <mxGeometry width="50" height="50" relative="1" as="geometry">
            <mxPoint x="1290" y="-270" as="sourcePoint" />
            <mxPoint x="1357" y="-341" as="targetPoint" />
            <Array as="points">
              <mxPoint x="1290" y="-340" />
            </Array>
          </mxGeometry>
        </mxCell>
        <mxCell id="yjy2nmk_XKgMLHxyc1XQ-260" value="" style="endArrow=none;html=1;rounded=0;exitX=0.987;exitY=0.107;exitDx=0;exitDy=0;exitPerimeter=0;" edge="1" parent="1">
          <mxGeometry width="50" height="50" relative="1" as="geometry">
            <mxPoint x="1299.74" y="-264.8600000000001" as="sourcePoint" />
            <mxPoint x="1280" y="-265" as="targetPoint" />
          </mxGeometry>
        </mxCell>
        <mxCell id="yjy2nmk_XKgMLHxyc1XQ-261" value="WR" style="text;html=1;align=center;verticalAlign=middle;whiteSpace=wrap;rounded=0;" vertex="1" parent="1">
          <mxGeometry x="1280" y="-267" width="20" height="20" as="geometry" />
        </mxCell>
        <mxCell id="yjy2nmk_XKgMLHxyc1XQ-262" value="" style="endArrow=none;html=1;rounded=0;exitX=0.5;exitY=1;exitDx=0;exitDy=0;" edge="1" parent="1" source="yjy2nmk_XKgMLHxyc1XQ-258">
          <mxGeometry width="50" height="50" relative="1" as="geometry">
            <mxPoint x="1240" y="-290" as="sourcePoint" />
            <mxPoint x="1290" y="-340" as="targetPoint" />
          </mxGeometry>
        </mxCell>
        <mxCell id="yjy2nmk_XKgMLHxyc1XQ-263" value="" style="endArrow=none;html=1;rounded=0;" edge="1" parent="1">
          <mxGeometry width="50" height="50" relative="1" as="geometry">
            <mxPoint x="1297" y="-360" as="sourcePoint" />
            <mxPoint x="1340" y="-369" as="targetPoint" />
            <Array as="points">
              <mxPoint x="1340" y="-360" />
            </Array>
          </mxGeometry>
        </mxCell>
        <mxCell id="yjy2nmk_XKgMLHxyc1XQ-264" value="" style="endArrow=none;html=1;rounded=0;entryX=0;entryY=0.5;entryDx=0;entryDy=0;" edge="1" parent="1" target="yjy2nmk_XKgMLHxyc1XQ-256">
          <mxGeometry width="50" height="50" relative="1" as="geometry">
            <mxPoint x="1000" y="-160" as="sourcePoint" />
            <mxPoint x="1270" y="-380" as="targetPoint" />
            <Array as="points">
              <mxPoint x="1270" y="-160" />
              <mxPoint x="1270" y="-360" />
            </Array>
          </mxGeometry>
        </mxCell>
        <mxCell id="yjy2nmk_XKgMLHxyc1XQ-268" value="7" style="text;html=1;align=center;verticalAlign=middle;whiteSpace=wrap;rounded=0;" vertex="1" parent="1">
          <mxGeometry x="1181.5" y="-340" width="20" height="20" as="geometry" />
        </mxCell>
        <mxCell id="yjy2nmk_XKgMLHxyc1XQ-269" value="" style="endArrow=none;html=1;rounded=0;" edge="1" parent="1">
          <mxGeometry width="50" height="50" relative="1" as="geometry">
            <mxPoint x="1178" y="-330" as="sourcePoint" />
            <mxPoint x="1198" y="-350" as="targetPoint" />
          </mxGeometry>
        </mxCell>
        <mxCell id="yjy2nmk_XKgMLHxyc1XQ-270" value="7" style="text;html=1;align=center;verticalAlign=middle;whiteSpace=wrap;rounded=0;" vertex="1" parent="1">
          <mxGeometry x="994.25" y="-144" width="20" height="20" as="geometry" />
        </mxCell>
        <mxCell id="yjy2nmk_XKgMLHxyc1XQ-271" value="" style="endArrow=none;html=1;rounded=0;" edge="1" parent="1">
          <mxGeometry width="50" height="50" relative="1" as="geometry">
            <mxPoint x="987.75" y="-131" as="sourcePoint" />
            <mxPoint x="1007.75" y="-151" as="targetPoint" />
          </mxGeometry>
        </mxCell>
        <mxCell id="yjy2nmk_XKgMLHxyc1XQ-272" value="7" style="text;html=1;align=center;verticalAlign=middle;whiteSpace=wrap;rounded=0;" vertex="1" parent="1">
          <mxGeometry x="1074" y="-144" width="20" height="20" as="geometry" />
        </mxCell>
        <mxCell id="yjy2nmk_XKgMLHxyc1XQ-273" value="" style="endArrow=none;html=1;rounded=0;" edge="1" parent="1">
          <mxGeometry width="50" height="50" relative="1" as="geometry">
            <mxPoint x="1067.5" y="-131" as="sourcePoint" />
            <mxPoint x="1087.5" y="-151" as="targetPoint" />
          </mxGeometry>
        </mxCell>
        <mxCell id="yjy2nmk_XKgMLHxyc1XQ-274" value="+" style="text;html=1;align=center;verticalAlign=middle;whiteSpace=wrap;rounded=0;fontSize=30;" vertex="1" parent="1">
          <mxGeometry x="510" y="-211" width="20" height="20" as="geometry" />
        </mxCell>
        <mxCell id="yjy2nmk_XKgMLHxyc1XQ-275" value="end6 (D1 - D6)" style="text;html=1;align=center;verticalAlign=middle;whiteSpace=wrap;rounded=0;" vertex="1" parent="1">
          <mxGeometry x="598" y="-145" width="89" height="30" as="geometry" />
        </mxCell>
        <mxCell id="yjy2nmk_XKgMLHxyc1XQ-277" value="6" style="text;html=1;align=center;verticalAlign=middle;whiteSpace=wrap;rounded=0;" vertex="1" parent="1">
          <mxGeometry x="456.5" y="219" width="20" height="20" as="geometry" />
        </mxCell>
        <mxCell id="yjy2nmk_XKgMLHxyc1XQ-278" value="" style="endArrow=none;html=1;rounded=0;" edge="1" parent="1">
          <mxGeometry width="50" height="50" relative="1" as="geometry">
            <mxPoint x="450" y="232" as="sourcePoint" />
            <mxPoint x="470" y="212" as="targetPoint" />
          </mxGeometry>
        </mxCell>
        <mxCell id="yjy2nmk_XKgMLHxyc1XQ-279" value="10" style="text;html=1;align=center;verticalAlign=middle;whiteSpace=wrap;rounded=0;" vertex="1" parent="1">
          <mxGeometry x="454.5" y="255.5" width="20" height="20" as="geometry" />
        </mxCell>
        <mxCell id="yjy2nmk_XKgMLHxyc1XQ-280" value="" style="endArrow=none;html=1;rounded=0;" edge="1" parent="1">
          <mxGeometry width="50" height="50" relative="1" as="geometry">
            <mxPoint x="448" y="268.5" as="sourcePoint" />
            <mxPoint x="468" y="248.5" as="targetPoint" />
          </mxGeometry>
        </mxCell>
      </root>
    </mxGraphModel>
  </diagram>
</mxfile>
